<svg width="30" height="30" viewBox="0 0 30 30" fill="none" xmlns="http://www.w3.org/2000/svg">
<g clip-path="url(#clip0)">
<path d="M24.2961 0.00673422C19.4866 0.430608 15.9375 2.83127 13.8685 6.3018C12.482 8.03997 9.71223 13.3466 8.70493 16.1246C6.87848 19.5791 5.28581 23.6894 4.0394 27.3946C3.2775 29.6605 6.69856 31.1387 7.46483 28.8627C8.39696 26.0905 9.52309 23.0933 10.7957 20.312C12.0586 23.1384 13.3418 25.9557 14.7197 28.7283C15.7876 30.8807 19.0011 28.9931 17.937 26.8481C16.5185 23.9939 15.2008 21.0942 13.9025 18.1848C13.919 18.1286 13.9398 18.0738 13.9573 18.018C14.1736 18.0796 14.4122 18.0985 14.6751 18.0485C16.6615 17.6756 18.648 17.3036 20.636 16.9307C21.4852 16.7711 21.8106 15.8419 21.6767 15.0979C21.2752 12.8685 20.005 11.3175 18.424 9.84992C18.1892 9.05164 17.4065 8.34551 16.5379 7.64374C18.2988 4.7969 21.1738 3.25175 24.9159 2.92196C26.8258 2.75464 26.1895 -0.159615 24.2961 0.00673422ZM17.0583 12.6788C17.5495 13.19 17.9676 13.7278 18.2833 14.3506C17.3221 14.531 16.3604 14.7109 15.3991 14.8913C15.8841 14.1105 16.4423 13.3733 17.0583 12.6788Z" fill="#9A8989"/>
<path d="M21.1709 10.141C22.5838 10.141 23.7292 8.99559 23.7292 7.58269C23.7292 6.16979 22.5838 5.02441 21.1709 5.02441C19.758 5.02441 18.6126 6.16979 18.6126 7.58269C18.6126 8.99559 19.758 10.141 21.1709 10.141Z" fill="#9A8989"/>
</g>
<defs>
<clipPath id="clip0">
<rect width="30" height="30" fill="white"/>
</clipPath>
</defs>
</svg>
