<svg width="30" height="30" viewBox="0 0 30 30" fill="none" xmlns="http://www.w3.org/2000/svg">
<g clip-path="url(#clip0)">
<path d="M29.1911 13.0486C29.1904 13.0479 29.1897 13.0472 29.189 13.0465L16.9514 0.809326C16.4298 0.287476 15.7363 0 14.9986 0C14.2609 0 13.5674 0.287247 13.0455 0.809097L0.814301 13.0401C0.810181 13.0442 0.806061 13.0486 0.801941 13.0527C-0.269226 14.13 -0.267395 15.878 0.807205 16.9526C1.29816 17.4438 1.94658 17.7283 2.63986 17.758C2.66802 17.7608 2.6964 17.7621 2.72501 17.7621H3.21275V26.768C3.21275 28.55 4.66272 30 6.44525 30H11.233C11.7182 30 12.1119 29.6066 12.1119 29.1211V22.0605C12.1119 21.2473 12.7734 20.5859 13.5866 20.5859H16.4105C17.2238 20.5859 17.8852 21.2473 17.8852 22.0605V29.1211C17.8852 29.6066 18.2787 30 18.7641 30H23.5519C25.3344 30 26.7844 28.55 26.7844 26.768V17.7621H27.2367C27.9741 17.7621 28.6676 17.4749 29.1897 16.953C30.2654 15.8766 30.2659 14.1257 29.1911 13.0486Z" fill="#9A8989"/>
</g>
<defs>
<clipPath id="clip0">
<rect width="30" height="30" fill="white"/>
</clipPath>
</defs>
</svg>
